<svg version="1.1" id="Layer_1" xmlns="http://www.w3.org/2000/svg" xmlns:xlink="http://www.w3.org/1999/xlink" x="0px" y="0px"
	 viewBox="0 0 430.1 430.1" style="enable-background:new 0 0 430.1 430.1;" xml:space="preserve">
	<style type="text/css">
		.st1{fill:#FFFFFF;}
	</style>
	<path id="LinkedIn__x28_alt_x29_" class="st0" d="M230.7,194.3h0.4v-0.6C231,193.9,230.8,194.1,230.7,194.3z M230.7,194.3h0.4v-0.6
		C231,193.9,230.8,194.1,230.7,194.3z"/>
	<path class="st1" d="M230.7,194.3h0.4v-0.6C231,193.9,230.8,194.1,230.7,194.3z M230.7,194.3h0.4v-0.6
		C231,193.9,230.8,194.1,230.7,194.3z M342.6,4.5H86.4c-45.6,0-83,37.3-83,83v256.1c0,45.6,37.3,83,83,83h256.1c45.6,0,83-37.3,83-83
		V87.4C425.5,41.8,388.2,4.5,342.6,4.5z M131.6,358H67.5V166.5h64.1V358z M99.5,140.4h-0.4c-21.5,0-35.4-14.7-35.4-33.1
		c0-18.7,14.3-33,36.3-33c21.9,0,35.4,14.3,35.8,33C135.8,125.7,121.9,140.4,99.5,140.4z M298.5,358V255.5c0-25.7-9.3-43.3-32.4-43.3
		c-17.8,0-28.2,11.8-32.8,23.3c-1.7,4-2.2,9.8-2.2,15.5v107H167c0,0,0.9-173.5,0-191.5h64.1v27.1c8.5-13,23.7-31.7,57.7-31.7
		c42.2,0,73.8,27.3,73.8,86.2l0.1,109.9H298.5z M231.1,194.3v-0.6c-0.1,0.2-0.3,0.4-0.4,0.6H231.1z"/>
</svg>
