<?xml version="1.0" encoding="utf-8"?>
<!-- Generator: Adobe Illustrator 20.1.0, SVG Export Plug-In . SVG Version: 6.00 Build 0)  -->
<svg version="1.1" id="Layer_1" xmlns="http://www.w3.org/2000/svg" xmlns:xlink="http://www.w3.org/1999/xlink" x="0px" y="0px"
	 viewBox="0 0 600 57.5" style="enable-background:new 0 0 600 57.5;" xml:space="preserve">
<style type="text/css">
	.st0{fill:#FFFFFF;}
</style>
<path class="st0" d="M383.4,2.2v1.4c-5.9,0.4-5.9,3.5-5.9,8.5v11.4c0,5.3,0,7.9-1.6,10.9s-7,7-14.2,7s-12.1-3.6-13.7-5.9
	s-2-5.8-2-12.6V12.4c0-8.2-0.1-8.8-5.4-8.8h-0.9V2.2h17.5v1.4c-6,0-6.2,0-6.2,8.7V23c0,5.8,0,9,1.5,11.6s4.8,4.8,10.6,4.8
	c3.9,0,8.7-1.4,11.4-5.5s1.7-5.4,1.7-10.6V11.6c0-4.9,0-7.6-6.2-8V2.2H383.4z"/>
<path class="st0" d="M390,15.2c0.5,1.7,0.7,3.4,0.8,5.1c3.1-3.4,5.9-5.1,9.4-5.1c5.6,0,7.6,3.9,7.6,8v9c0,6.7,0,7,4,7v1.3h-12.5
	v-1.2c4.2,0,4.2-0.4,4.2-7v-7.9c0-5.6-2-7.3-4.9-7.3s-5.7,2.9-7.8,5.2v9.9c0,6.6,0,7,4,7v1.3h-12.3v-1.2c4,0,4-0.4,4-7V25
	c0-6.7,0-7-4-7v-1.4c2.3-0.3,4.5-0.8,6.7-1.4H390z"/>
<path class="st0" d="M423.1,34.6c0,3.9,0.4,4.6,3.4,4.6h0.9v1.3h-13v-1.2h1c3.1,0,3.7-0.5,3.7-4.6v-9.8c0-6.7-0.4-6.7-4.8-6.7v-1.4
	c2.7-0.3,5.5-0.8,8.1-1.6h0.6L423.1,34.6z"/>
<path class="st0" d="M441.3,41.6l-8.7-19.5c-1.6-3.5-2.2-4.4-4.5-4.5v-1.4h11v1.3c-1.6,0-3.1,0-3.1,1.5c0.1,0.7,0.3,1.5,0.7,2.1
	l7.1,15.9l5.9-13.2c0.7-1.3,1.2-2.7,1.4-4.1c0-1.8-1.9-2.1-3-2.1v-1.4h8.2v1.3c-2.6,0.2-3.5,2.4-5.4,6.6L443,41.6H441.3z"/>
<path class="st0" d="M461.7,25.5c-0.1,0.5-0.1,1.4-0.1,1.8c0,7.8,2.4,12.6,8.4,12.6c3.4,0.1,6.5-1.8,7.9-4.9h1.4
	c-1.5,4-5.1,6.5-10.1,6.5c-6.8,0-12.5-5.1-12.5-13s4.9-13.4,12.3-13.4s10.4,4.5,10.6,10.3L461.7,25.5z M461.8,24.3h13.1
	c-0.1-2.9-0.9-7.8-6.1-7.8S462.1,21,461.8,24.3L461.8,24.3z"/>
<path class="st0" d="M491.4,32.3c0,6.2,0,7,3.6,7h0.9v1.3h-13v-1.3c4.2,0,4.2-0.2,4.2-7v-6.9c0-6.8,0-7-4.2-7V17
	c2.3-0.4,4.6-0.9,6.9-1.6h0.4c0.6,2.1,0.9,4.2,0.9,6.4c1.6-3.8,5.3-6.3,9.4-6.4c3.2,0,4.7,2.3,4.7,3.7c0.1,1.2-0.8,2.1-2,2.2
	c0,0-0.1,0-0.1,0c-1.2,0-2.2-0.9-2.4-2c-0.2-1-1.1-1.7-2.1-1.8c-2.4,0-7.2,2.9-7.2,9.2L491.4,32.3z"/>
<path class="st0" d="M507.4,33.4h1.2c0.6,2.9,2.7,6.9,8.4,6.9c5.7,0,5.7-3.1,5.7-4.3c0-3-3.2-4.4-7-5.8c-5.6-2.1-8.1-3.8-8.1-8.1
	s2.3-6.8,7.8-6.8c2.4,0,4.6,0.9,6.3,2.6c0.5-0.7,0.9-1.4,1.2-2.1h1.1v7.6h-1.1c-0.5-2.8-3-6.7-7.3-6.7s-5.3,2-5.3,3.7
	s2.3,3.9,6.8,5.5c4.5,1.6,8.6,3.7,8.6,8.6s-3,7.2-8.5,7.2c-2.6,0.1-5.2-0.9-7.1-2.7c-0.6,0.7-1,1.6-1.3,2.5h-1.2L507.4,33.4z"/>
<path class="st0" d="M538.2,34.6c0,3.9,0.4,4.6,3.4,4.6h0.9v1.3h-13v-1.2h1c3.1,0,3.7-0.5,3.7-4.6v-9.8c0-6.7-0.4-6.7-4.8-6.7v-1.4
	c2.7-0.3,5.5-0.8,8.1-1.6h0.6L538.2,34.6z"/>
<path class="st0" d="M552.6,17.6v14.7c0,3.4,0,7.2,3.7,7.2c2.1,0,3.2-1.6,3.7-2.4l0.9,0.5c-1.1,2.4-3.5,4-6.2,4
	c-1.4,0.1-2.8-0.3-4-1.2c-1.6-1.2-2.3-3.5-2.3-7.1V17.6h-3.5v-1.4c2.7-0.1,5.9-1.9,6.8-7.6h1v7.6h7.3v1.3L552.6,17.6z"/>
<path class="st0" d="M584.3,21.5c0.4-0.8,0.7-1.6,0.9-2.4c0-1.3-2.2-1.6-3.3-1.6v-1.3h8.5v1.3c-3.1,0.2-3.7,1.7-5.2,5.4l-10.9,26.3
	c-1.6,3.8-3.1,6.5-5.4,6.5c-1,0.1-1.8-0.7-1.9-1.7c0,0,0-0.1,0-0.1c0-2,2-2.9,3.1-3.4s2.7-1.3,3.6-3.4l2.3-5.8l-9.2-19.7
	c-1.4-3-1.9-4-4.8-4v-1.4h11.2v1.3c-1.5,0.1-3,0.2-3,1.2c0.3,1,0.7,2,1.2,3l6.8,14.3L584.3,21.5z"/>
<circle class="st0" cx="420.6" cy="7.5" r="2.6"/>
<circle class="st0" cx="535.6" cy="7.5" r="2.6"/>
<path class="st0" d="M17.7,5.5v27.3c0,4,0.9,6.3,7.1,6.5v1.3H9.7v-1.3c6.7-0.3,6.5-3.1,6.5-6.5V11.9c0-7.8-0.4-8.3-6-8.3V2.3h11
	l22.9,30.4V9.4c0-3.2-0.4-5.7-6.9-5.8V2.3h14.7v1.3c-5.9,0.5-6.3,2.6-6.3,6.2v31.8h-0.9L17.7,5.5z"/>
<path class="st0" d="M64.3,15.3c7.1-0.2,12.9,5.4,13.1,12.5c0,0.2,0,0.4,0,0.6c0,8.7-6.5,13.2-13.1,13.2s-13-4.2-13-13.2
	c-0.2-7.1,5.4-12.9,12.5-13.1C64,15.3,64.1,15.3,64.3,15.3z M64.3,40.2c5.6,0,8.1-3.8,8.1-11.5s-1.8-11.9-8.1-11.9
	s-8.1,5.2-8.1,11.8S58.8,40.2,64.3,40.2z"/>
<path class="st0" d="M88.2,32.3c0,6.2,0,7,3.6,7h0.9v1.3H79.8v-1.3c4.2,0,4.2-0.2,4.2-7v-6.9c0-6.8,0-7-4.2-7V17
	c2.3-0.4,4.6-0.9,6.9-1.6h0.4c0.6,2.1,0.9,4.2,0.9,6.4c1.6-3.8,5.3-6.3,9.4-6.4c3.2,0,4.7,2.3,4.7,3.7c0.1,1.2-0.8,2.1-2,2.2
	c0,0-0.1,0-0.1,0c-1.2,0-2.2-0.9-2.4-2c-0.2-1-1.1-1.7-2.1-1.8c-2.4,0-7.2,2.9-7.2,9.2L88.2,32.3z"/>
<path class="st0" d="M111.9,17.6v14.8c0,3.4,0,7.2,3.7,7.2c2.1,0,3.2-1.6,3.7-2.4l0.9,0.5c-1.1,2.4-3.5,4-6.2,4
	c-1.4,0.1-2.8-0.3-4-1.2c-1.6-1.2-2.3-3.5-2.3-7.1V17.6h-3.5v-1.4c2.7-0.1,5.9-1.9,6.8-7.6h1v7.6h7.4v1.3L111.9,17.6z"/>
<path class="st0" d="M147.9,32.3c0,6.7,0,7,4.1,7v1.3h-12.6v-1.3c4.2,0,4.2-0.3,4.2-7v-7.9c0-5.7-1.7-7.3-5.3-7.3s-5.5,2.9-7.4,5.4
	v9.8c0,6.5,0,7,3.8,7v1.3h-12.3v-1.3c4.3,0,4.3-0.2,4.3-7V10c0-4.3,0-5.7-4-5.7V3c2.7,0,5.3-0.5,7.8-1.3h0.4v18.6
	c3.1-3.2,5.7-5.1,8.9-5.1c5.4,0,8.2,2.9,8.2,8.4L147.9,32.3z"/>
<path class="st0" d="M158.1,25.6c-0.1,0.6-0.1,1.4-0.1,1.8c0,7.8,2.4,12.6,8.4,12.6c3.4,0.1,6.5-1.8,7.9-4.9h1.4
	c-1.5,4-5.1,6.5-10.1,6.5c-6.8,0-12.5-5.1-12.5-13s4.9-13.4,12.3-13.4s10.4,4.5,10.6,10.3L158.1,25.6z M158.2,24.4h13.1
	c-0.1-2.9-0.9-7.7-6.1-7.7S158.5,21,158.2,24.4L158.2,24.4z"/>
<path class="st0" d="M207.3,33.4h1.2c0.6,2.9,2.7,6.9,8.4,6.9s5.7-3.1,5.7-4.3c0-3-3.2-4.4-7-5.8c-5.6-2.1-8.1-3.8-8.1-8.1
	s2.3-6.8,7.8-6.8c2.4,0,4.6,0.9,6.3,2.6c0.5-0.7,0.9-1.4,1.2-2.1h1.1v7.6h-1.1c-0.5-2.8-3-6.7-7.3-6.7s-5.3,2-5.3,3.7
	s2.3,3.9,6.8,5.5c4.5,1.6,8.6,3.7,8.6,8.6s-3,7.2-8.5,7.2c-2.6,0.1-5.2-0.9-7.1-2.7c-0.6,0.7-1,1.6-1.3,2.5h-1.2L207.3,33.4z"/>
<path class="st0" d="M236.6,17.6v14.8c0,3.4,0,7.2,3.7,7.2c2.1,0,3.2-1.6,3.7-2.4l0.9,0.5c-1.1,2.4-3.5,4-6.2,4
	c-1.4,0.1-2.8-0.3-4-1.2c-1.6-1.2-2.3-3.5-2.3-7.1V17.6h-3.5v-1.4c2.7-0.1,5.9-1.9,6.8-7.6h1v7.6h7.4v1.3L236.6,17.6z"/>
<path class="st0" d="M251.3,25.6c-0.1,0.6-0.1,1.4-0.1,1.8c0,7.8,2.4,12.6,8.4,12.6c3.4,0.1,6.5-1.8,7.9-4.9h1.4
	c-1.5,4-5.1,6.5-10.1,6.5c-6.8,0-12.5-5.1-12.5-13s4.9-13.4,12.3-13.4s10.4,4.5,10.6,10.3L251.3,25.6z M251.4,24.4h13.1
	c-0.1-2.9-0.9-7.7-6.1-7.7S251.7,21,251.4,24.4L251.4,24.4z"/>
<path class="st0" d="M280.2,32.3c0,6.2,0,7,3.6,7h0.9v1.3h-12.9v-1.3c4.2,0,4.2-0.2,4.2-7v-6.9c0-6.8,0-7-4.2-7V17
	c2.3-0.4,4.6-0.9,6.9-1.6h0.4c0.6,2.1,0.9,4.2,0.9,6.4c1.6-3.8,5.3-6.3,9.4-6.4c3.2,0,4.7,2.3,4.7,3.7c0.1,1.2-0.8,2.1-2,2.2
	c0,0-0.1,0-0.1,0c-1.2,0-2.2-0.9-2.4-2c-0.2-1-1.1-1.7-2.1-1.8c-2.4,0-7.2,2.9-7.2,9.2L280.2,32.3z"/>
<path class="st0" d="M303.7,15.3c0.5,1.7,0.7,3.4,0.8,5.1c3.1-3.4,5.9-5.1,9.4-5.1c5.6,0,7.6,3.9,7.6,8v9c0,6.7,0,7,4,7v1.3H313
	v-1.3c4.2,0,4.2-0.4,4.2-7v-7.9c0-5.6-2-7.3-4.9-7.3s-5.7,2.9-7.8,5.2v9.9c0,6.6,0,7,4,7v1.3h-12.3v-1.2c4,0,4-0.4,4-7V25
	c0-6.7,0-7-4-7v-1.3c2.3-0.3,4.5-0.8,6.7-1.4L303.7,15.3z"/>
<path class="st0" d="M203.7,36.2c-0.5,2.9-1.7,3-2.5,3s-1.9-1.3-1.9-5.5v-9.9c0-3.6-0.5-8.5-8.9-8.5c-6.1,0-9.8,3.1-9.8,5.6
	c-0.1,0.9,0.5,1.7,1.4,1.8c0.1,0,0.1,0,0.2,0c1.6,0,2.2-1.2,2.6-2.5s1.3-3.5,5.2-3.5s5.1,2.9,5.1,6.5v1.5l-4.6,1.6
	c-8.6,2.9-11.2,6.3-11.2,9.8s2.7,5.2,6.3,5.2s6-1.2,9.6-4.3c0.3,1.5,1.1,4.3,4.7,4.3s4.8-2.3,4.9-5.1H203.7z M195.2,35.6
	c-2.5,2.1-5.8,3.8-8,3.8s-3.9-1.9-3.9-4.1s3.2-6.4,8.4-8.1l3.5-1.1V35.6z"/>
</svg>
