<?xml version="1.0" encoding="utf-8"?>
<svg version="1.1" id="Layer_1" xmlns="http://www.w3.org/2000/svg" xmlns:xlink="http://www.w3.org/1999/xlink" x="0px" y="0px"
	 viewBox="0 0 11.2 11.2" style="enable-background:new 0 0 11.2 11.2;" xml:space="preserve">
<g>
	<g id="layer1">
		<path  style="fill:#ca0814" d="M7.9,5.9l2.5,2.5c0.2,0.2,0.2,0.5,0,0.7l-1.3,1.3c-0.2,0.2-0.5,0.2-0.7,0L5.9,7.9c-0.2-0.2-0.5-0.2-0.7,0l-2.5,2.5
			c-0.2,0.2-0.5,0.2-0.7,0L0.8,9.1c-0.2-0.2-0.2-0.5,0-0.7l2.5-2.5c0.2-0.2,0.2-0.5,0-0.7L0.8,2.7C0.6,2.5,0.6,2.2,0.8,2L2,0.8
			c0.2-0.2,0.5-0.2,0.7,0l2.5,2.5c0.2,0.2,0.5,0.2,0.7,0l2.5-2.5c0.2-0.2,0.5-0.2,0.7,0L10.4,2c0.2,0.2,0.2,0.5,0,0.7L7.9,5.2
			C7.7,5.4,7.7,5.7,7.9,5.9z"/>
	</g>
</g>
</svg>
